<mxfile host="app.diagrams.net" modified="2020-10-23T13:47:09.194Z" agent="5.0 (Macintosh; Intel Mac OS X 10_15_6) AppleWebKit/605.1.15 (KHTML, like Gecko) Version/14.0.1 Safari/605.1.15" etag="2v6Cg0MKDN8ah9PpcLuE" version="13.8.1" type="github">
  <diagram id="n-rDw6tFRH5fv3bB2vdx" name="Page-1">
    <mxGraphModel dx="1381" dy="860" grid="1" gridSize="10" guides="1" tooltips="1" connect="1" arrows="1" fold="1" page="1" pageScale="1" pageWidth="827" pageHeight="1169" math="0" shadow="0">
      <root>
        <mxCell id="0" />
        <mxCell id="1" parent="0" />
        <mxCell id="pKQHqKs6udv1I0v10rs0-2" value="Hurtownia" style="rounded=0;whiteSpace=wrap;html=1;" vertex="1" parent="1">
          <mxGeometry x="80" y="200" width="180" height="40" as="geometry" />
        </mxCell>
        <mxCell id="pKQHqKs6udv1I0v10rs0-4" value="&lt;font color=&quot;#e30017&quot;&gt;&amp;nbsp;nazwa:&lt;br&gt;&amp;nbsp;adres:&lt;/font&gt;" style="rounded=0;whiteSpace=wrap;html=1;align=left;" vertex="1" parent="1">
          <mxGeometry x="80" y="240" width="180" height="60" as="geometry" />
        </mxCell>
        <mxCell id="pKQHqKs6udv1I0v10rs0-7" value="" style="rounded=0;whiteSpace=wrap;html=1;" vertex="1" parent="1">
          <mxGeometry x="80" y="300" width="180" height="30" as="geometry" />
        </mxCell>
        <mxCell id="pKQHqKs6udv1I0v10rs0-9" value="" style="endArrow=none;html=1;" edge="1" parent="1">
          <mxGeometry width="50" height="50" relative="1" as="geometry">
            <mxPoint x="260" y="270" as="sourcePoint" />
            <mxPoint x="480" y="270" as="targetPoint" />
          </mxGeometry>
        </mxCell>
        <mxCell id="pKQHqKs6udv1I0v10rs0-11" value="Zamówienie" style="whiteSpace=wrap;html=1;" vertex="1" parent="1">
          <mxGeometry x="480" y="200" width="160" height="40" as="geometry" />
        </mxCell>
        <mxCell id="pKQHqKs6udv1I0v10rs0-12" value="&lt;font color=&quot;#e30017&quot;&gt;&amp;nbsp;dataZłożenia:&lt;/font&gt;" style="whiteSpace=wrap;html=1;align=left;" vertex="1" parent="1">
          <mxGeometry x="480" y="240" width="160" height="40" as="geometry" />
        </mxCell>
        <mxCell id="pKQHqKs6udv1I0v10rs0-13" value="" style="rounded=0;whiteSpace=wrap;html=1;" vertex="1" parent="1">
          <mxGeometry x="480" y="280" width="160" height="30" as="geometry" />
        </mxCell>
        <mxCell id="pKQHqKs6udv1I0v10rs0-18" value="" style="endArrow=openThin;html=1;strokeWidth=1;endFill=0;endSize=13;jumpSize=6;startSize=8;" edge="1" parent="1">
          <mxGeometry width="50" height="50" relative="1" as="geometry">
            <mxPoint x="560" y="310" as="sourcePoint" />
            <mxPoint x="560" y="440" as="targetPoint" />
          </mxGeometry>
        </mxCell>
        <mxCell id="pKQHqKs6udv1I0v10rs0-19" value="&lt;i&gt;Płatność&lt;/i&gt;" style="rounded=0;whiteSpace=wrap;html=1;" vertex="1" parent="1">
          <mxGeometry x="480" y="440" width="160" height="40" as="geometry" />
        </mxCell>
        <mxCell id="pKQHqKs6udv1I0v10rs0-20" value="&lt;font color=&quot;#e30017&quot;&gt;&amp;nbsp;suma:&lt;/font&gt;" style="rounded=0;whiteSpace=wrap;html=1;align=left;" vertex="1" parent="1">
          <mxGeometry x="480" y="480" width="160" height="40" as="geometry" />
        </mxCell>
        <mxCell id="pKQHqKs6udv1I0v10rs0-21" style="edgeStyle=orthogonalEdgeStyle;rounded=0;orthogonalLoop=1;jettySize=auto;html=1;exitX=0.5;exitY=1;exitDx=0;exitDy=0;strokeWidth=1;" edge="1" parent="1" source="pKQHqKs6udv1I0v10rs0-20" target="pKQHqKs6udv1I0v10rs0-20">
          <mxGeometry relative="1" as="geometry" />
        </mxCell>
        <mxCell id="pKQHqKs6udv1I0v10rs0-23" value="" style="rounded=0;whiteSpace=wrap;html=1;" vertex="1" parent="1">
          <mxGeometry x="480" y="520" width="160" height="10" as="geometry" />
        </mxCell>
        <mxCell id="pKQHqKs6udv1I0v10rs0-24" value="" style="endArrow=none;dashed=1;html=1;strokeWidth=1;" edge="1" parent="1">
          <mxGeometry width="50" height="50" relative="1" as="geometry">
            <mxPoint x="320" y="660" as="sourcePoint" />
            <mxPoint x="800" y="660" as="targetPoint" />
          </mxGeometry>
        </mxCell>
        <mxCell id="pKQHqKs6udv1I0v10rs0-25" value="KartaPłatnicza" style="rounded=0;whiteSpace=wrap;html=1;" vertex="1" parent="1">
          <mxGeometry x="480" y="720" width="160" height="40" as="geometry" />
        </mxCell>
        <mxCell id="pKQHqKs6udv1I0v10rs0-26" value="&lt;font color=&quot;#e30017&quot;&gt;&amp;nbsp;typ: &amp;nbsp; &amp;nbsp; = kredytowa&lt;br&gt;&amp;nbsp;numer:&lt;br&gt;&amp;nbsp;dataWażności:&lt;/font&gt;" style="rounded=0;whiteSpace=wrap;html=1;align=left;" vertex="1" parent="1">
          <mxGeometry x="480" y="760" width="160" height="60" as="geometry" />
        </mxCell>
        <mxCell id="pKQHqKs6udv1I0v10rs0-27" value="&lt;font color=&quot;#368736&quot;&gt;&amp;nbsp;obciąż()&lt;/font&gt;" style="rounded=0;whiteSpace=wrap;html=1;align=left;" vertex="1" parent="1">
          <mxGeometry x="480" y="820" width="160" height="20" as="geometry" />
        </mxCell>
        <mxCell id="pKQHqKs6udv1I0v10rs0-31" value="" style="endArrow=block;html=1;strokeWidth=1;entryX=0.5;entryY=1;entryDx=0;entryDy=0;exitX=0.5;exitY=0;exitDx=0;exitDy=0;endFill=0;endSize=13;" edge="1" parent="1" source="pKQHqKs6udv1I0v10rs0-25" target="pKQHqKs6udv1I0v10rs0-23">
          <mxGeometry width="50" height="50" relative="1" as="geometry">
            <mxPoint x="510" y="610" as="sourcePoint" />
            <mxPoint x="560" y="560" as="targetPoint" />
          </mxGeometry>
        </mxCell>
        <mxCell id="pKQHqKs6udv1I0v10rs0-32" value="Gotówka" style="rounded=0;whiteSpace=wrap;html=1;" vertex="1" parent="1">
          <mxGeometry x="280" y="720" width="160" height="40" as="geometry" />
        </mxCell>
        <mxCell id="pKQHqKs6udv1I0v10rs0-33" value="&lt;font color=&quot;#ff031c&quot;&gt;&amp;nbsp;kwotaPrzekazania:&lt;/font&gt;" style="rounded=0;whiteSpace=wrap;html=1;align=left;" vertex="1" parent="1">
          <mxGeometry x="280" y="760" width="160" height="50" as="geometry" />
        </mxCell>
        <mxCell id="pKQHqKs6udv1I0v10rs0-34" value="" style="rounded=0;whiteSpace=wrap;html=1;" vertex="1" parent="1">
          <mxGeometry x="280" y="810" width="160" height="30" as="geometry" />
        </mxCell>
        <mxCell id="pKQHqKs6udv1I0v10rs0-35" value="Przelew" style="rounded=0;whiteSpace=wrap;html=1;" vertex="1" parent="1">
          <mxGeometry x="680" y="720" width="160" height="40" as="geometry" />
        </mxCell>
        <mxCell id="pKQHqKs6udv1I0v10rs0-36" value="&lt;font color=&quot;#ff031c&quot;&gt;&amp;nbsp;nazwaBanku:&lt;br&gt;&amp;nbsp;nrKonta:&lt;/font&gt;" style="rounded=0;whiteSpace=wrap;html=1;align=left;" vertex="1" parent="1">
          <mxGeometry x="680" y="760" width="160" height="60" as="geometry" />
        </mxCell>
        <mxCell id="pKQHqKs6udv1I0v10rs0-37" value="" style="rounded=0;whiteSpace=wrap;html=1;" vertex="1" parent="1">
          <mxGeometry x="680" y="820" width="160" height="20" as="geometry" />
        </mxCell>
        <mxCell id="pKQHqKs6udv1I0v10rs0-38" value="" style="endArrow=block;html=1;strokeWidth=1;entryX=0.75;entryY=1;entryDx=0;entryDy=0;endFill=0;endSize=13;" edge="1" parent="1" target="pKQHqKs6udv1I0v10rs0-23">
          <mxGeometry width="50" height="50" relative="1" as="geometry">
            <mxPoint x="760" y="720" as="sourcePoint" />
            <mxPoint x="810" y="670" as="targetPoint" />
          </mxGeometry>
        </mxCell>
        <mxCell id="pKQHqKs6udv1I0v10rs0-39" value="" style="endArrow=block;html=1;strokeWidth=1;exitX=0.5;exitY=0;exitDx=0;exitDy=0;endFill=0;endSize=13;" edge="1" parent="1" source="pKQHqKs6udv1I0v10rs0-32">
          <mxGeometry width="50" height="50" relative="1" as="geometry">
            <mxPoint x="370" y="690" as="sourcePoint" />
            <mxPoint x="520" y="530" as="targetPoint" />
          </mxGeometry>
        </mxCell>
        <mxCell id="pKQHqKs6udv1I0v10rs0-40" value="" style="endArrow=none;dashed=1;html=1;strokeWidth=1;" edge="1" parent="1">
          <mxGeometry width="50" height="50" relative="1" as="geometry">
            <mxPoint x="720" y="600" as="sourcePoint" />
            <mxPoint x="720" y="360" as="targetPoint" />
          </mxGeometry>
        </mxCell>
        <mxCell id="pKQHqKs6udv1I0v10rs0-41" value="Należność" style="rounded=0;whiteSpace=wrap;html=1;" vertex="1" parent="1">
          <mxGeometry x="840" y="360" width="160" height="40" as="geometry" />
        </mxCell>
        <mxCell id="pKQHqKs6udv1I0v10rs0-42" value="&lt;font color=&quot;#e30017&quot;&gt;&amp;nbsp;terminPłatności:&lt;/font&gt;" style="rounded=0;whiteSpace=wrap;html=1;align=left;" vertex="1" parent="1">
          <mxGeometry x="840" y="400" width="160" height="50" as="geometry" />
        </mxCell>
        <mxCell id="pKQHqKs6udv1I0v10rs0-44" value="" style="rounded=0;whiteSpace=wrap;html=1;" vertex="1" parent="1">
          <mxGeometry x="840" y="440" width="160" height="30" as="geometry" />
        </mxCell>
        <mxCell id="pKQHqKs6udv1I0v10rs0-46" value="Wpływ" style="rounded=0;whiteSpace=wrap;html=1;" vertex="1" parent="1">
          <mxGeometry x="840" y="520" width="160" height="40" as="geometry" />
        </mxCell>
        <mxCell id="pKQHqKs6udv1I0v10rs0-47" value="" style="rounded=0;whiteSpace=wrap;html=1;" vertex="1" parent="1">
          <mxGeometry x="840" y="560" width="160" height="30" as="geometry" />
        </mxCell>
        <mxCell id="pKQHqKs6udv1I0v10rs0-48" value="&lt;font color=&quot;#368736&quot;&gt;&amp;nbsp;zaksięguj()&lt;/font&gt;" style="rounded=0;whiteSpace=wrap;html=1;align=left;" vertex="1" parent="1">
          <mxGeometry x="840" y="590" width="160" height="30" as="geometry" />
        </mxCell>
        <mxCell id="pKQHqKs6udv1I0v10rs0-49" value="" style="endArrow=block;html=1;strokeWidth=1;entryX=1;entryY=0.5;entryDx=0;entryDy=0;endFill=0;endSize=13;" edge="1" parent="1" target="pKQHqKs6udv1I0v10rs0-19">
          <mxGeometry width="50" height="50" relative="1" as="geometry">
            <mxPoint x="840" y="420" as="sourcePoint" />
            <mxPoint x="890" y="370" as="targetPoint" />
          </mxGeometry>
        </mxCell>
        <mxCell id="pKQHqKs6udv1I0v10rs0-50" value="" style="endArrow=block;html=1;strokeWidth=1;entryX=1;entryY=0.75;entryDx=0;entryDy=0;endFill=0;endSize=13;" edge="1" parent="1" target="pKQHqKs6udv1I0v10rs0-20">
          <mxGeometry width="50" height="50" relative="1" as="geometry">
            <mxPoint x="840" y="580" as="sourcePoint" />
            <mxPoint x="650" y="510" as="targetPoint" />
          </mxGeometry>
        </mxCell>
        <mxCell id="pKQHqKs6udv1I0v10rs0-51" value="termin" style="text;html=1;strokeColor=none;fillColor=none;align=center;verticalAlign=middle;whiteSpace=wrap;rounded=0;" vertex="1" parent="1">
          <mxGeometry x="680" y="370" width="40" height="20" as="geometry" />
        </mxCell>
        <mxCell id="pKQHqKs6udv1I0v10rs0-55" value="1" style="text;html=1;strokeColor=none;fillColor=none;align=center;verticalAlign=middle;whiteSpace=wrap;rounded=0;" vertex="1" parent="1">
          <mxGeometry x="260" y="250" width="40" height="20" as="geometry" />
        </mxCell>
        <mxCell id="pKQHqKs6udv1I0v10rs0-56" value="1..*" style="text;html=1;strokeColor=none;fillColor=none;align=center;verticalAlign=middle;whiteSpace=wrap;rounded=0;" vertex="1" parent="1">
          <mxGeometry x="440" y="250" width="40" height="20" as="geometry" />
        </mxCell>
        <mxCell id="pKQHqKs6udv1I0v10rs0-57" value="&lt;div style=&quot;text-align: justify&quot;&gt;podstawa&lt;/div&gt;&lt;div style=&quot;text-align: justify&quot;&gt;płatności&lt;/div&gt;" style="text;html=1;strokeColor=none;fillColor=none;align=center;verticalAlign=middle;whiteSpace=wrap;rounded=0;" vertex="1" parent="1">
          <mxGeometry x="510" y="320" width="40" height="20" as="geometry" />
        </mxCell>
        <mxCell id="pKQHqKs6udv1I0v10rs0-58" value="klient" style="text;html=1;strokeColor=none;fillColor=none;align=center;verticalAlign=middle;whiteSpace=wrap;rounded=0;" vertex="1" parent="1">
          <mxGeometry x="270" y="270" width="40" height="20" as="geometry" />
        </mxCell>
        <mxCell id="pKQHqKs6udv1I0v10rs0-59" value="1" style="text;html=1;strokeColor=none;fillColor=none;align=center;verticalAlign=middle;whiteSpace=wrap;rounded=0;" vertex="1" parent="1">
          <mxGeometry x="560" y="310" width="40" height="20" as="geometry" />
        </mxCell>
        <mxCell id="pKQHqKs6udv1I0v10rs0-60" value="1..*" style="text;html=1;strokeColor=none;fillColor=none;align=center;verticalAlign=middle;whiteSpace=wrap;rounded=0;" vertex="1" parent="1">
          <mxGeometry x="560" y="420" width="40" height="20" as="geometry" />
        </mxCell>
        <mxCell id="pKQHqKs6udv1I0v10rs0-63" value="rodzaj" style="text;html=1;strokeColor=none;fillColor=none;align=center;verticalAlign=middle;whiteSpace=wrap;rounded=0;" vertex="1" parent="1">
          <mxGeometry x="320" y="640" width="60" height="20" as="geometry" />
        </mxCell>
        <mxCell id="pKQHqKs6udv1I0v10rs0-64" value="" style="endArrow=none;html=1;strokeWidth=1;entryX=1;entryY=1;entryDx=0;entryDy=0;exitX=0;exitY=1;exitDx=0;exitDy=0;" edge="1" parent="1" source="pKQHqKs6udv1I0v10rs0-65" target="pKQHqKs6udv1I0v10rs0-65">
          <mxGeometry width="50" height="50" relative="1" as="geometry">
            <mxPoint x="40" y="40" as="sourcePoint" />
            <mxPoint x="90" y="-10" as="targetPoint" />
          </mxGeometry>
        </mxCell>
        <mxCell id="pKQHqKs6udv1I0v10rs0-65" value="cld SystemPłatności" style="text;html=1;strokeColor=none;fillColor=none;align=center;verticalAlign=middle;whiteSpace=wrap;rounded=0;" vertex="1" parent="1">
          <mxGeometry width="120" height="20" as="geometry" />
        </mxCell>
        <mxCell id="pKQHqKs6udv1I0v10rs0-66" value="" style="endArrow=none;html=1;strokeWidth=1;" edge="1" parent="1">
          <mxGeometry width="50" height="50" relative="1" as="geometry">
            <mxPoint x="120" y="20" as="sourcePoint" />
            <mxPoint x="130" as="targetPoint" />
          </mxGeometry>
        </mxCell>
        <mxCell id="pKQHqKs6udv1I0v10rs0-67" value="" style="endArrow=none;html=1;strokeWidth=1;exitX=0;exitY=0;exitDx=0;exitDy=0;" edge="1" parent="1" source="pKQHqKs6udv1I0v10rs0-65">
          <mxGeometry width="50" height="50" relative="1" as="geometry">
            <mxPoint x="160" as="sourcePoint" />
            <mxPoint x="1080" as="targetPoint" />
          </mxGeometry>
        </mxCell>
        <mxCell id="pKQHqKs6udv1I0v10rs0-68" value="" style="endArrow=none;html=1;strokeWidth=1;" edge="1" parent="1">
          <mxGeometry width="50" height="50" relative="1" as="geometry">
            <mxPoint x="1080" y="880" as="sourcePoint" />
            <mxPoint x="1080" as="targetPoint" />
          </mxGeometry>
        </mxCell>
        <mxCell id="pKQHqKs6udv1I0v10rs0-69" value="" style="endArrow=none;html=1;strokeWidth=1;" edge="1" parent="1">
          <mxGeometry width="50" height="50" relative="1" as="geometry">
            <mxPoint y="880" as="sourcePoint" />
            <mxPoint x="1080" y="880" as="targetPoint" />
          </mxGeometry>
        </mxCell>
        <mxCell id="pKQHqKs6udv1I0v10rs0-70" value="" style="endArrow=none;html=1;strokeWidth=1;entryX=0;entryY=0;entryDx=0;entryDy=0;" edge="1" parent="1" target="pKQHqKs6udv1I0v10rs0-65">
          <mxGeometry width="50" height="50" relative="1" as="geometry">
            <mxPoint y="880" as="sourcePoint" />
            <mxPoint x="50" y="830" as="targetPoint" />
          </mxGeometry>
        </mxCell>
      </root>
    </mxGraphModel>
  </diagram>
</mxfile>
